<svg xmlns="http://www.w3.org/2000/svg" fill="none" viewBox="0 0 130 56" height="56" width="130">
<path fill="white" d="M23.6073 55.9958C19.9226 56.066 16.2737 55.2578 12.9584 53.6373C9.988 52.1782 7.43475 49.9828 5.5385 47.2571C3.6768 44.543 2.27343 41.5376 1.38513 38.3626C0.445585 34.9899 -0.0204086 31.5013 0.000685259 27.9985C0.000278215 25.3183 0.296638 22.6464 0.884287 20.0323C1.47795 17.3904 2.42186 14.8409 3.69065 12.4524C4.91203 10.111 6.46625 7.96162 8.30415 6.07225C10.2064 4.17014 12.468 2.67132 14.9552 1.66436C17.6999 0.535223 20.6409 -0.0302303 23.6056 0.00124538C28.3215 0.00124538 32.1149 0.968125 34.9859 2.90185C38.0124 5.00125 40.5558 7.73079 42.444 10.9058L35.7457 17.6451C32.1836 11.4126 27.7069 8.97203 23.6056 8.97203C21.2468 8.91839 18.9189 9.5208 16.878 10.713C15.0072 11.8192 13.477 13.4251 12.4567 15.353C11.4394 17.2628 10.6891 19.3049 10.2269 21.4215C9.76119 23.5809 9.52912 25.7847 9.5347 27.9944C9.5347 33.3571 10.7136 37.8675 13.0716 41.5256C15.4295 45.1837 18.9406 47.0152 23.6048 47.0201C24.9747 47.0607 26.3385 46.8212 27.6138 46.316C28.8891 45.8108 30.0494 45.0505 31.0247 44.0809C31.9839 43.1523 32.742 42.034 33.2513 40.7961C33.7606 39.5583 34.0101 38.2277 33.9842 36.8881V36.0377H24.5324V27.3023H43.3692V34.8043C43.3692 41.4556 41.5232 46.6494 37.8313 50.3857C34.1394 54.1219 29.3978 55.9908 23.6065 55.9925"></path>
<path fill="white" d="M97.3996 47.3342C98.6801 47.386 99.9539 47.1247 101.112 46.5725C102.271 46.0204 103.279 45.1939 104.051 44.1638C105.665 42.0507 106.472 39.1119 106.473 35.3472C106.473 31.5825 105.666 28.6177 104.051 26.4527C103.291 25.4038 102.288 24.5591 101.128 23.9928C99.9679 23.4265 98.6876 23.156 97.3996 23.2052C96.1263 23.1726 94.8645 23.4553 93.725 24.0284C92.5855 24.6014 91.6031 25.4474 90.8641 26.4921C89.2229 28.6844 88.4025 31.6367 88.4031 35.3489C88.4036 39.061 89.2109 41.986 90.8251 44.1236C91.579 45.1567 92.5719 45.9888 93.7177 46.5479C94.8634 47.1069 96.1272 47.376 97.3996 47.3317M97.3996 55.9933C91.8618 55.9933 87.479 54.1618 84.2513 50.4989C81.0236 46.8359 79.409 41.7842 79.4073 35.3439C79.4073 28.8998 81.022 23.8339 84.2513 20.1463C87.4806 16.4587 91.8634 14.6158 97.3996 14.6174C102.937 14.6174 107.333 16.4604 110.586 20.1463C113.839 23.8323 115.467 28.8982 115.468 35.3439C115.468 41.7891 113.854 46.8416 110.624 50.5013C107.395 54.161 102.987 55.9925 97.3996 55.9958"></path>
<path fill="white" d="M130 23.4217H122.28V7.76819H106.717V0.00292969H130V23.4217Z"></path>
<path fill="white" d="M77.1824 17.3032C75.1647 15.5434 72.5767 14.5889 69.9076 14.6199C66.1141 14.6199 63.4229 16.2956 61.8337 19.6469V15.5466H52.838V55.0675H61.8346V32.9493C61.8346 29.5471 62.5523 27.1238 63.9878 25.6794C64.6666 24.9783 65.4807 24.4246 66.38 24.0523C67.2793 23.6799 68.2448 23.4969 69.2169 23.5144C71.104 23.494 72.9666 23.9448 74.6383 24.8265L77.1824 17.3032Z"></path>
</svg>
